<?xml version="1.0" standalone="no"?>
<!DOCTYPE svg PUBLIC "-//W3C//DTD SVG 20010904//EN"
 "http://www.w3.org/TR/2001/REC-SVG-20010904/DTD/svg10.dtd">
<svg version="1.0" xmlns="http://www.w3.org/2000/svg"
 width="512.000000pt" height="512.000000pt" viewBox="0 0 512.000000 512.000000"
 preserveAspectRatio="xMidYMid meet">
<metadata>
Created by potrace 1.11, written by Peter Selinger 2001-2013
</metadata>
<g transform="translate(0.000000,512.000000) scale(0.100000,-0.100000)"
fill="#000000" stroke="none">
<path d="M2384 4900 c-905 -75 -1673 -680 -1954 -1540 -81 -247 -110 -455
-110 -796 0 -359 29 -561 116 -823 107 -320 277 -599 514 -845 189 -196 380
-335 625 -456 777 -385 1711 -280 2390 267 458 369 751 902 820 1491 20 168
20 556 0 724 -119 1018 -906 1823 -1920 1963 -133 18 -357 25 -481 15z m526
-235 c365 -62 699 -204 985 -418 114 -85 268 -228 346 -320 29 -34 11 -18 -40
36 -292 307 -674 535 -1068 638 -197 51 -352 70 -573 70 -221 0 -376 -19 -573
-70 -394 -103 -776 -331 -1068 -638 -51 -54 -69 -70 -40 -36 121 144 330 321
512 434 242 151 586 274 854 308 50 6 101 13 115 15 61 11 460 -3 550 -19z
m-2080 -808 c0 -2 -10 -12 -22 -23 l-23 -19 19 23 c18 21 26 27 26 19z m3485
-17 c10 -11 16 -20 13 -20 -3 0 -13 9 -23 20 -10 11 -16 20 -13 20 3 0 13 -9
23 -20z m-3525 -34 c0 -2 -8 -10 -17 -17 -16 -13 -17 -12 -4 4 13 16 21 21 21
13z m3561 -13 c13 -16 12 -17 -3 -4 -17 13 -22 21 -14 21 2 0 10 -8 17 -17z
m30 -40 c13 -16 12 -17 -3 -4 -10 7 -18 15 -18 17 0 8 8 3 21 -13z m-1361
-193 c0 -5 -52 -152 -116 -327 -64 -175 -131 -360 -150 -410 l-34 -93 231 0
c210 0 231 -2 225 -16 -4 -9 -55 -90 -114 -180 -59 -90 -136 -209 -172 -263
-36 -55 -112 -172 -170 -260 -58 -88 -121 -185 -140 -215 -19 -30 -96 -147
-170 -260 l-134 -206 -68 0 c-37 0 -68 2 -68 5 0 2 9 44 21 92 11 48 31 138
44 198 13 61 37 171 54 245 37 166 89 405 97 443 l6 27 -217 0 c-201 0 -216 1
-211 18 3 9 17 80 31 156 14 77 48 259 76 405 51 268 105 559 116 619 l6 32
428 0 c269 0 429 -4 429 -10z"/>
</g>
</svg>
